<?xml version="1.0" encoding="UTF-8"?>
<svg xmlns="http://www.w3.org/2000/svg" xmlns:xlink="http://www.w3.org/1999/xlink" width="60pt" height="60pt" viewBox="0 0 60 60" version="1.1">
<g id="surface1">
<path style=" stroke:none;fill-rule:nonzero;fill:rgb(0%,0%,0%);fill-opacity:1;" d="M 57.679688 2.261719 C 56.167969 0.75 54.351562 0 52.253906 0 L 7.6875 0 C 5.578125 0 3.773438 0.75 2.261719 2.261719 C 0.75 3.773438 0 5.578125 0 7.6875 L 0 52.253906 C 0 54.351562 0.75 56.167969 2.261719 57.667969 C 3.773438 59.179688 5.578125 59.941406 7.6875 59.941406 L 52.253906 59.941406 C 54.351562 59.941406 56.167969 59.179688 57.667969 57.667969 C 59.179688 56.167969 59.941406 54.351562 59.941406 52.253906 L 59.941406 7.6875 C 59.941406 5.578125 59.179688 3.773438 57.679688 2.261719 Z M 21.515625 21.597656 C 23.871094 19.324219 26.707031 18.1875 30.011719 18.1875 C 33.339844 18.1875 36.175781 19.324219 38.53125 21.597656 C 40.886719 23.871094 42.070312 26.625 42.070312 29.847656 C 42.070312 33.082031 40.886719 35.824219 38.53125 38.097656 C 36.175781 40.382812 33.339844 41.519531 30.011719 41.519531 C 26.707031 41.519531 23.871094 40.382812 21.515625 38.097656 C 19.171875 35.824219 17.988281 33.082031 17.988281 29.847656 C 17.988281 26.625 19.171875 23.871094 21.515625 21.597656 Z M 53.144531 50.648438 C 53.144531 51.328125 52.910156 51.890625 52.441406 52.347656 C 51.972656 52.804688 51.421875 53.027344 50.765625 53.027344 L 9.058594 53.027344 C 8.378906 53.027344 7.816406 52.804688 7.359375 52.347656 C 6.902344 51.890625 6.667969 51.328125 6.667969 50.648438 L 6.667969 25.359375 L 12.175781 25.359375 C 11.660156 27 11.390625 28.710938 11.390625 30.480469 C 11.390625 35.472656 13.21875 39.726562 16.863281 43.253906 C 20.496094 46.78125 24.878906 48.539062 30.011719 48.539062 C 33.386719 48.539062 36.515625 47.730469 39.375 46.125 C 42.234375 44.507812 44.496094 42.316406 46.160156 39.550781 C 47.824219 36.773438 48.65625 33.75 48.65625 30.480469 C 48.65625 28.710938 48.398438 27 47.882812 25.359375 L 53.144531 25.359375 Z M 53.144531 15.808594 C 53.144531 16.558594 52.886719 17.191406 52.371094 17.71875 C 51.84375 18.234375 51.210938 18.492188 50.449219 18.492188 L 43.664062 18.492188 C 42.914062 18.492188 42.269531 18.234375 41.753906 17.71875 C 41.238281 17.191406 40.96875 16.558594 40.96875 15.808594 L 40.96875 9.363281 C 40.96875 8.636719 41.238281 8.003906 41.753906 7.476562 C 42.269531 6.9375 42.914062 6.667969 43.664062 6.667969 L 50.449219 6.667969 C 51.210938 6.667969 51.84375 6.9375 52.371094 7.476562 C 52.886719 8.003906 53.144531 8.636719 53.144531 9.363281 Z M 53.144531 15.808594 "/>
</g>
</svg>
