<svg xmlns="http://www.w3.org/2000/svg" width="20pt" height="20pt" viewBox="0 0 20 20"><path d="M19.22656.7539C18.72266.25 18.1172 0 17.41796 0H2.5625C1.85937 0 1.25781.25.7539.7539.25 1.25782 0 1.85938 0 2.5625v14.85547c0 .69922.25 1.30469.7539 1.80469.50391.5039 1.10547.7578 1.8086.7578h14.85547c.69922 0 1.30469-.2539 1.80469-.7578.5039-.5.7578-1.10547.7578-1.8047V2.5625c0-.70313-.2539-1.30469-.7539-1.8086zM7.17188 7.19923C7.95702 6.4414 8.90234 6.0625 10.0039 6.0625c1.10937 0 2.05468.3789 2.83984 1.13672.78516.75781 1.17969 1.67578 1.17969 2.75 0 1.07812-.39453 1.99219-1.17969 2.75-.78516.76172-1.73047 1.14062-2.83984 1.14062-1.10157 0-2.04688-.3789-2.83203-1.14062-.78125-.75781-1.17579-1.67188-1.17579-2.75 0-1.07422.39454-1.99219 1.17579-2.75zm10.54296 9.6836c0 .22656-.07812.41406-.23437.5664-.15625.15234-.33985.22656-.5586.22656H3.01953c-.22656 0-.41406-.07422-.5664-.22656-.15235-.15235-.23047-.33985-.23047-.5664v-8.4297h1.83593c-.17187.54688-.26171 1.1172-.26171 1.70704 0 1.66406.60937 3.08203 1.82421 4.2578 1.21094 1.17579 2.67188 1.76173 4.38282 1.76173 1.125 0 2.16797-.26953 3.12109-.80469.95313-.53906 1.70703-1.26953 2.26172-2.1914.55469-.92579.83203-1.9336.83203-3.02344 0-.58985-.08594-1.16016-.25781-1.70703h1.7539zm0-11.61329c0 .25-.08593.46094-.2578.63672-.17579.17188-.38673.25781-.64063.25781h-2.26172c-.25 0-.46485-.08594-.63672-.25781-.17188-.17578-.26172-.38672-.26172-.63672V3.1211c0-.24218.08984-.45312.26172-.6289.17187-.17969.38672-.26953.63672-.26953h2.26172c.2539 0 .46484.08984.64062.26953.17188.17578.25781.38672.25781.6289zm0 0"/></svg>