<?xml version="1.0" encoding="UTF-8"?>
<svg xmlns="http://www.w3.org/2000/svg" xmlns:xlink="http://www.w3.org/1999/xlink" width="60pt" height="60pt" viewBox="0 0 60 60" version="1.1">
<g id="surface1">
<path style=" stroke:none;fill-rule:nonzero;fill:rgb(0%,0%,0%);fill-opacity:1;" d="M 30.816406 0 C 14.371094 0 5.625 10.539062 5.625 22.027344 C 5.625 27.359375 8.601562 34.003906 13.371094 36.109375 C 14.09375 36.4375 14.488281 36.296875 14.648438 35.625 C 14.792969 35.117188 15.417969 32.660156 15.722656 31.5 C 15.816406 31.128906 15.765625 30.808594 15.464844 30.457031 C 13.882812 28.628906 12.628906 25.292969 12.628906 22.167969 C 12.628906 14.152344 19 6.371094 29.839844 6.371094 C 39.214844 6.371094 45.773438 12.460938 45.773438 21.171875 C 45.773438 31.019531 40.566406 37.828125 33.796875 37.828125 C 30.050781 37.828125 27.261719 34.886719 28.144531 31.25 C 29.214844 26.917969 31.3125 22.261719 31.3125 19.136719 C 31.3125 16.335938 29.726562 14.019531 26.496094 14.019531 C 22.679688 14.019531 19.585938 17.792969 19.585938 22.863281 C 19.585938 26.085938 20.726562 28.261719 20.726562 28.261719 C 20.726562 28.261719 16.953125 43.503906 16.253906 46.347656 C 15.070312 51.167969 16.414062 58.972656 16.53125 59.644531 C 16.601562 60.015625 17.019531 60.128906 17.25 59.828125 C 17.621094 59.339844 22.183594 52.832031 23.460938 48.128906 C 23.925781 46.414062 25.835938 39.464844 25.835938 39.464844 C 27.089844 41.734375 30.71875 43.636719 34.582031 43.636719 C 46.070312 43.636719 54.375 33.539062 54.375 21.003906 C 54.332031 8.988281 44.050781 0 30.816406 0 Z M 30.816406 0 "/>
</g>
</svg>
