<?xml version="1.0" encoding="UTF-8"?>
<svg xmlns="http://www.w3.org/2000/svg" xmlns:xlink="http://www.w3.org/1999/xlink" width="60pt" height="60pt" viewBox="0 0 60 60" version="1.1">
<g id="surface1">
<path style=" stroke:none;fill-rule:nonzero;fill:rgb(1.176471%,66.27451%,95.686275%);fill-opacity:1;" d="M 60 11.394531 C 57.769531 12.375 55.390625 13.023438 52.914062 13.339844 C 55.460938 11.816406 57.410156 9.421875 58.324219 6.539062 C 55.945312 7.957031 53.320312 8.957031 50.523438 9.515625 C 48.265625 7.113281 45.046875 5.625 41.539062 5.625 C 34.730469 5.625 29.246094 11.152344 29.246094 17.929688 C 29.246094 18.902344 29.328125 19.839844 29.53125 20.734375 C 19.304688 20.234375 10.257812 15.332031 4.175781 7.867188 C 3.117188 9.707031 2.492188 11.816406 2.492188 14.085938 C 2.492188 18.34375 4.6875 22.121094 7.957031 24.308594 C 5.980469 24.269531 4.042969 23.695312 2.398438 22.792969 L 2.398438 22.925781 C 2.398438 28.90625 6.664062 33.871094 12.253906 35.015625 C 11.253906 35.289062 10.164062 35.417969 9.03125 35.417969 C 8.242188 35.417969 7.449219 35.375 6.703125 35.207031 C 8.296875 40.078125 12.816406 43.660156 18.195312 43.777344 C 14.011719 47.050781 8.695312 49.023438 2.945312 49.023438 C 1.933594 49.023438 0.96875 48.980469 0 48.855469 C 5.449219 52.367188 11.90625 54.375 18.871094 54.375 C 41.503906 54.375 53.878906 35.625 53.878906 19.371094 C 53.878906 18.828125 53.859375 18.304688 53.835938 17.78125 C 56.277344 16.050781 58.328125 13.886719 60 11.394531 Z M 60 11.394531 "/>
</g>
</svg>
