<svg xmlns="http://www.w3.org/2000/svg"><symbol id="facebook" viewBox="0 0 60 60"><path d="M22.055 11.625v8.262h-6.047v10.101h6.047v30.024h12.433V29.988h8.356s.773-4.84 1.16-10.136h-9.469v-6.915c0-1.03 1.36-2.414 2.707-2.414h6.774V0h-9.211c-13.055 0-12.75 10.113-12.75 11.625zm0 0"/></symbol><symbol id="twitter" viewBox="0 0 60 60"><path d="M60 11.395a25.68 25.68 0 0 1-7.086 1.945 12.25 12.25 0 0 0 5.41-6.8 24.588 24.588 0 0 1-7.8 2.976 12.333 12.333 0 0 0-8.985-3.891c-6.809 0-12.293 5.527-12.293 12.305 0 .972.082 1.91.285 2.804-10.226-.5-19.273-5.402-25.355-12.867-1.059 1.84-1.684 3.95-1.684 6.219 0 4.258 2.196 8.035 5.465 10.223-1.977-.04-3.914-.614-5.559-1.516v.133c0 5.98 4.266 10.945 9.856 12.09-1 .273-2.09.402-3.223.402-.789 0-1.582-.043-2.328-.211 1.594 4.871 6.113 8.453 11.492 8.57a24.716 24.716 0 0 1-15.25 5.246A22.82 22.82 0 0 1 0 48.855c5.45 3.512 11.906 5.52 18.871 5.52 22.633 0 35.008-18.75 35.008-35.004 0-.543-.02-1.066-.043-1.59 2.441-1.73 4.492-3.894 6.164-6.386zm0 0"/></symbol><symbol id="pinterest" viewBox="0 0 60 60"><path d="M30.816 0C14.371 0 5.625 10.54 5.625 22.027c0 5.332 2.977 11.977 7.746 14.082.723.328 1.117.188 1.277-.484.145-.508.77-2.965 1.075-4.125.093-.371.043-.691-.258-1.043-1.582-1.828-2.836-5.164-2.836-8.289 0-8.016 6.371-15.797 17.21-15.797 9.376 0 15.934 6.09 15.934 14.8 0 9.849-5.207 16.657-11.976 16.657-3.746 0-6.535-2.941-5.652-6.578 1.07-4.332 3.168-8.988 3.168-12.113 0-2.801-1.586-5.117-4.817-5.117-3.816 0-6.91 3.773-6.91 8.843 0 3.223 1.14 5.399 1.14 5.399s-3.773 15.242-4.472 18.086c-1.184 4.82.16 12.625.277 13.297.07.37.489.484.719.183.371-.488 4.934-6.996 6.21-11.7.466-1.714 2.376-8.663 2.376-8.663 1.254 2.27 4.883 4.172 8.746 4.172 11.488 0 19.793-10.098 19.793-22.633C54.332 8.988 44.051 0 30.816 0zm0 0"/></symbol><symbol id="instagram" viewBox="0 0 60 60"><path d="M57.68 2.262C56.168.75 54.352 0 52.254 0H7.688c-2.11 0-3.915.75-5.426 2.262C.75 3.773 0 5.578 0 7.688v44.566c0 2.098.75 3.914 2.262 5.414 1.511 1.512 3.316 2.273 5.426 2.273h44.566c2.098 0 3.914-.761 5.414-2.273 1.512-1.5 2.273-3.316 2.273-5.414V7.688c0-2.11-.761-3.915-2.261-5.426zM21.516 21.598c2.355-2.274 5.191-3.41 8.496-3.41 3.328 0 6.164 1.136 8.52 3.41 2.355 2.273 3.538 5.027 3.538 8.25 0 3.234-1.183 5.976-3.539 8.25-2.355 2.285-5.191 3.422-8.52 3.422-3.304 0-6.14-1.137-8.495-3.422-2.344-2.274-3.528-5.016-3.528-8.25 0-3.223 1.184-5.977 3.528-8.25zm31.629 29.05c0 .68-.235 1.243-.704 1.7a2.3 2.3 0 0 1-1.675.68H9.059c-.68 0-1.243-.223-1.7-.68-.457-.457-.691-1.02-.691-1.7V25.36h5.508a17.006 17.006 0 0 0-.785 5.121c0 4.993 1.828 9.247 5.472 12.774 3.633 3.527 8.016 5.285 13.149 5.285 3.375 0 6.504-.809 9.363-2.414 2.86-1.617 5.121-3.809 6.785-6.574 1.664-2.778 2.496-5.801 2.496-9.07 0-1.77-.258-3.481-.773-5.122h5.262zm0-34.84c0 .75-.258 1.383-.774 1.91-.527.516-1.16.774-1.922.774h-6.785c-.75 0-1.394-.258-1.91-.773a2.637 2.637 0 0 1-.785-1.91V9.363c0-.726.27-1.36.785-1.886a2.55 2.55 0 0 1 1.91-.809h6.785c.762 0 1.395.27 1.922.809a2.61 2.61 0 0 1 .774 1.886zm0 0"/></symbol></svg>