<svg version="1.1" xmlns="http://www.w3.org/2000/svg" xmlns:xlink="http://www.w3.org/1999/xlink">
    <symbol id="search" viewBox="0 -31 512 512">
        <path id="search" d="M164.96 300.004h.024c.02 0 .04-.004.059-.004H437a15.003 15.003 0 0 0 
        14.422-10.879l60-210a15.003 15.003 0 0 0-2.445-13.152A15.006 15.006 0 0 0 497 
        60H130.367l-10.722-48.254A15.003 15.003 0 0 0 105 0H15C6.715 0 0 6.715 0 15s6.715 15 15 
        15h77.969c1.898 8.55 51.312 230.918 54.156 243.71C131.184 280.64 120 296.536 120 315c0 
        24.812 20.188 45 45 45h272c8.285 0 15-6.715 15-15s-6.715-15-15-15H165c-8.27 0-15-6.73-15-15 
        0-8.258 6.707-14.977 14.96-14.996zM477.114 90l-51.43 180H177.032l-40-180zm0 0M150 405c0 24.813
        20.188 45 45 45s45-20.188 45-45-20.188-45-45-45-45 20.188-45 45zm45-15c8.27 0 15 6.73 15 15s-6.73
        15-15 15-15-6.73-15-15 6.73-15 15-15zm0 0M362 405c0 24.813 20.188 45 45 45s45-20.188 
        45-45-20.188-45-45-45-45 20.188-45 45zm45-15c8.27 0 15 6.73 15 15s-6.73 15-15 15-15-6.73-15-15
        6.73-15 15-15zm0 0"/>
    </symbol>
    <symbol id="bucket" viewBox="0 0 56.966 56.966">
        <path d="M55.146 51.887L41.588 37.786A22.926 22.926 0 0 0 46.984 23c0-12.682-10.318-23-23-23s-23
        10.318-23 23 10.318 23 23 23c4.761 0 9.298-1.436 13.177-4.162l13.661 14.208c.571.593 1.339.92 
        2.162.92.779 0 1.518-.297 2.079-.837a3.004 3.004 0 0 0 .083-4.242zM23.984 6c9.374 0 17 7.626 17
        17s-7.626 17-17 17-17-7.626-17-17 7.626-17 17-17z"/>
    </symbol>
    <symbol id="facebook" viewBox="0 0 60 60" >
        <path d="M 22.054688 11.625 L 22.054688 19.886719 L 16.007812 19.886719 L 16.007812 29.988281 L 22.054688 29.988281 L 22.054688 60.011719 L 34.488281 60.011719 L 34.488281 29.988281 L 42.84375 29.988281 C 42.84375 29.988281 43.617188 25.148438 44.003906 19.851562 L 34.535156 19.851562 L 34.535156 12.9375 C 34.535156 11.90625 35.894531 10.523438 37.242188 10.523438 L 44.015625 10.523438 L 44.015625 0 L 34.804688 0 C 21.75 0 22.054688 10.113281 22.054688 11.625 Z M 22.054688 11.625 "/>
    </symbol>
    <symbol id="twitter" viewBox="0 0 60 60">
        <path d="M 60 11.394531 C 57.769531 12.375 55.390625 13.023438 52.914062 13.339844 C 55.460938 11.816406 57.410156 9.421875 58.324219 6.539062 C 55.945312 7.957031 53.320312 8.957031 50.523438 9.515625 C 48.265625 7.113281 45.046875 5.625 41.539062 5.625 C 34.730469 5.625 29.246094 11.152344 29.246094 17.929688 C 29.246094 18.902344 29.328125 19.839844 29.53125 20.734375 C 19.304688 20.234375 10.257812 15.332031 4.175781 7.867188 C 3.117188 9.707031 2.492188 11.816406 2.492188 14.085938 C 2.492188 18.34375 4.6875 22.121094 7.957031 24.308594 C 5.980469 24.269531 4.042969 23.695312 2.398438 22.792969 L 2.398438 22.925781 C 2.398438 28.90625 6.664062 33.871094 12.253906 35.015625 C 11.253906 35.289062 10.164062 35.417969 9.03125 35.417969 C 8.242188 35.417969 7.449219 35.375 6.703125 35.207031 C 8.296875 40.078125 12.816406 43.660156 18.195312 43.777344 C 14.011719 47.050781 8.695312 49.023438 2.945312 49.023438 C 1.933594 49.023438 0.96875 48.980469 0 48.855469 C 5.449219 52.367188 11.90625 54.375 18.871094 54.375 C 41.503906 54.375 53.878906 35.625 53.878906 19.371094 C 53.878906 18.828125 53.859375 18.304688 53.835938 17.78125 C 56.277344 16.050781 58.328125 13.886719 60 11.394531 Z M 60 11.394531 "/>
    </symbol>
    <symbol id="pinterest" viewBox="0 0 60 60">
        <path d="M 30.816406 0 C 14.371094 0 5.625 10.539062 5.625 22.027344 C 5.625 27.359375 8.601562 34.003906 13.371094 36.109375 C 14.09375 36.4375 14.488281 36.296875 14.648438 35.625 C 14.792969 35.117188 15.417969 32.660156 15.722656 31.5 C 15.816406 31.128906 15.765625 30.808594 15.464844 30.457031 C 13.882812 28.628906 12.628906 25.292969 12.628906 22.167969 C 12.628906 14.152344 19 6.371094 29.839844 6.371094 C 39.214844 6.371094 45.773438 12.460938 45.773438 21.171875 C 45.773438 31.019531 40.566406 37.828125 33.796875 37.828125 C 30.050781 37.828125 27.261719 34.886719 28.144531 31.25 C 29.214844 26.917969 31.3125 22.261719 31.3125 19.136719 C 31.3125 16.335938 29.726562 14.019531 26.496094 14.019531 C 22.679688 14.019531 19.585938 17.792969 19.585938 22.863281 C 19.585938 26.085938 20.726562 28.261719 20.726562 28.261719 C 20.726562 28.261719 16.953125 43.503906 16.253906 46.347656 C 15.070312 51.167969 16.414062 58.972656 16.53125 59.644531 C 16.601562 60.015625 17.019531 60.128906 17.25 59.828125 C 17.621094 59.339844 22.183594 52.832031 23.460938 48.128906 C 23.925781 46.414062 25.835938 39.464844 25.835938 39.464844 C 27.089844 41.734375 30.71875 43.636719 34.582031 43.636719 C 46.070312 43.636719 54.375 33.539062 54.375 21.003906 C 54.332031 8.988281 44.050781 0 30.816406 0 Z M 30.816406 0 "/>
    </symbol>
    <symbol id="instagram" viewBox="0 0 60 60">
        <path d="M 57.679688 2.261719 C 56.167969 0.75 54.351562 0 52.253906 0 L 7.6875 0 C 5.578125 0 3.773438 0.75 2.261719 2.261719 C 0.75 3.773438 0 5.578125 0 7.6875 L 0 52.253906 C 0 54.351562 0.75 56.167969 2.261719 57.667969 C 3.773438 59.179688 5.578125 59.941406 7.6875 59.941406 L 52.253906 59.941406 C 54.351562 59.941406 56.167969 59.179688 57.667969 57.667969 C 59.179688 56.167969 59.941406 54.351562 59.941406 52.253906 L 59.941406 7.6875 C 59.941406 5.578125 59.179688 3.773438 57.679688 2.261719 Z M 21.515625 21.597656 C 23.871094 19.324219 26.707031 18.1875 30.011719 18.1875 C 33.339844 18.1875 36.175781 19.324219 38.53125 21.597656 C 40.886719 23.871094 42.070312 26.625 42.070312 29.847656 C 42.070312 33.082031 40.886719 35.824219 38.53125 38.097656 C 36.175781 40.382812 33.339844 41.519531 30.011719 41.519531 C 26.707031 41.519531 23.871094 40.382812 21.515625 38.097656 C 19.171875 35.824219 17.988281 33.082031 17.988281 29.847656 C 17.988281 26.625 19.171875 23.871094 21.515625 21.597656 Z M 53.144531 50.648438 C 53.144531 51.328125 52.910156 51.890625 52.441406 52.347656 C 51.972656 52.804688 51.421875 53.027344 50.765625 53.027344 L 9.058594 53.027344 C 8.378906 53.027344 7.816406 52.804688 7.359375 52.347656 C 6.902344 51.890625 6.667969 51.328125 6.667969 50.648438 L 6.667969 25.359375 L 12.175781 25.359375 C 11.660156 27 11.390625 28.710938 11.390625 30.480469 C 11.390625 35.472656 13.21875 39.726562 16.863281 43.253906 C 20.496094 46.78125 24.878906 48.539062 30.011719 48.539062 C 33.386719 48.539062 36.515625 47.730469 39.375 46.125 C 42.234375 44.507812 44.496094 42.316406 46.160156 39.550781 C 47.824219 36.773438 48.65625 33.75 48.65625 30.480469 C 48.65625 28.710938 48.398438 27 47.882812 25.359375 L 53.144531 25.359375 Z M 53.144531 15.808594 C 53.144531 16.558594 52.886719 17.191406 52.371094 17.71875 C 51.84375 18.234375 51.210938 18.492188 50.449219 18.492188 L 43.664062 18.492188 C 42.914062 18.492188 42.269531 18.234375 41.753906 17.71875 C 41.238281 17.191406 40.96875 16.558594 40.96875 15.808594 L 40.96875 9.363281 C 40.96875 8.636719 41.238281 8.003906 41.753906 7.476562 C 42.269531 6.9375 42.914062 6.667969 43.664062 6.667969 L 50.449219 6.667969 C 51.210938 6.667969 51.84375 6.9375 52.371094 7.476562 C 52.886719 8.003906 53.144531 8.636719 53.144531 9.363281 Z M 53.144531 15.808594 "/>
    </symbol>
</svg>